<?xml version="1.0" encoding="utf-8"?>
<!-- Generator: Adobe Illustrator 20.0.0, SVG Export Plug-In . SVG Version: 6.00 Build 0)  -->
<svg version="1.1" id="Layer_1" xmlns="http://www.w3.org/2000/svg" xmlns:xlink="http://www.w3.org/1999/xlink" x="0px" y="0px"
	 viewBox="0 0 320 240" style="enable-background:new 0 0 320 240;" xml:space="preserve">
<style type="text/css">
	.st0{fill:#B2D7F0;}
	.st1{clip-path:url(#SVGID_2_);}
	.st2{fill:#A67B53;}
	.st3{fill:#8C623D;}
	.st4{fill-rule:evenodd;clip-rule:evenodd;fill:#221E1E;}
	.st5{fill:#F4A852;}
	.st6{fill-rule:evenodd;clip-rule:evenodd;fill:#222121;}
	.st7{clip-path:url(#SVGID_4_);}
	.st8{fill-rule:evenodd;clip-rule:evenodd;fill:#A67B53;}
	.st9{clip-path:url(#SVGID_6_);fill-rule:evenodd;clip-rule:evenodd;fill:#8C623D;}
	.st10{fill:#767577;}
	.st11{fill:#8D8D8D;}
	.st12{clip-path:url(#SVGID_8_);}
	.st13{fill-rule:evenodd;clip-rule:evenodd;fill:#6D5334;}
	.st14{fill-rule:evenodd;clip-rule:evenodd;fill:#C5A172;}
	.st15{clip-path:url(#SVGID_10_);fill-rule:evenodd;clip-rule:evenodd;fill:#98774C;}
	.st16{fill-rule:evenodd;clip-rule:evenodd;fill:#98774C;}
</style>
<path class="st0" d="M252.6,177.6c4.9,6.1,7.3,13,7.3,20.6c0,9.2-3.2,16.9-9.6,23.4c-6.4,6.4-14.2,9.6-23.4,9.6s-16.9-3.2-23.4-9.6
	c-6.4-6.4-9.6-14.2-9.6-23.4c0-7.6,2.4-14.5,7.3-20.6c4.9-6.1,11-9.9,18.3-11.5V83.1c0-6.1-2.1-11.3-6.4-15.6
	c-4.3-4.3-9.5-6.4-15.6-6.4h-24.3L201.3,89l-10.5,10.1l-45.3-45.3l45.3-45.3l10.5,10.1l-27.9,27.9h24.3c10.1,0,18.7,3.6,25.9,10.8
	c7.2,7.2,10.8,15.8,10.8,25.9v83.1C241.6,167.7,247.7,171.5,252.6,177.6z"/>
<path class="st0" d="M120.7,177.6c4.9,6.1,7.3,13,7.3,20.6c0,9.2-3.2,16.9-9.6,23.4c-6.4,6.4-14.2,9.6-23.4,9.6s-16.9-3.2-23.4-9.6
	c-6.4-6.4-9.6-14.2-9.6-23.4c0-7.6,2.4-14.5,7.3-20.6c4.9-6.1,11-9.9,18.3-11.5v-60.7c-7.3-1.5-13.4-5.3-18.3-11.5
	c-4.9-6.1-7.3-13-7.3-20.6c0-9.2,3.2-16.9,9.6-23.4c6.4-6.4,14.2-9.6,23.4-9.6s16.9,3.2,23.4,9.6s9.6,14.2,9.6,23.4
	c0,7.6-2.4,14.5-7.3,20.6c-4.9,6.1-11,9.9-18.3,11.5v60.7C109.7,167.7,115.8,171.5,120.7,177.6z"/>
<g>
	<defs>
		<circle id="SVGID_1_" cx="227.1" cy="198.3" r="32.9"/>
	</defs>
	<clipPath id="SVGID_2_">
		<use xlink:href="#SVGID_1_"  style="overflow:visible;"/>
	</clipPath>
	<g class="st1">
		<rect x="383.6" y="214.1" class="st2" width="13.4" height="21.8"/>
		<path class="st3" d="M383.6,214.1L383.6,214.1v9.1c1.7,1.1,4.5,1.7,6.6,1.7c2.1,0,5.1-0.7,6.8-1.8v-9.1H383.6z"/>
		<path class="st3" d="M372.5,204.7c0,1.1,0.8,1.9,1.9,1.9h33.4c1.1,0,1.9-0.8,1.9-1.9v-4c0-1.1-0.8-1.9-1.9-1.9h-33.4
			c-1.1,0-1.9,0.8-1.9,1.9V204.7z"/>
		<path class="st2" d="M406.1,192.7V211c0,4.5-9.5,10.4-15.1,10.4c-8.2,0-15.4-5.8-15.4-10.4v-18.3c0,0,1.8-14.9,14.7-14.9
			C403.3,177.8,406.1,192.7,406.1,192.7"/>
		<path d="M400.7,178.5c-1.1-1.5-3.8-3-9.5-3c-5.1,0-9.4,2.2-11.7,5.2c-1.4,0.3-6,1.2-6,1.2v16.9c0,0,1.1,0,1.1,0
			c3.7-3.2,5.3-10.9,5.3-10.9s14.6,1.7,19.6-3.7c0.4,1.8,1.4,3.8,1.9,5.6c2,6.7,5.7,9,5.7,9v-6.6C407,185.7,404.1,177.7,400.7,178.5
			"/>
		<path class="st4" d="M421.6,236.6v8.3c0,12.5,0,12.5-4.2,12.5h-51.6c-4.2,0-4.2,0-4.2-12.5v-8.3c0-9.2,17.2-12.8,21.5-13.2
			c0.3,3.7,4.4,5.8,7.7,5.8c3.3,0,5.9-2.6,6.4-5.9C406.7,223.1,421.6,227.5,421.6,236.6"/>
		<path class="st5" d="M235.4,224.1c0,0-4.2-0.3-4.4-10.3c-0.1-6.4-12.5-5.1-12.5,0.4c0,11.1-3.6,11.2-3.6,11.2l7,14L235.4,224.1z"
			/>
		<path class="st2" d="M235.4,224.1c0,0-4.2-0.3-4.4-10.3c-0.1-6.4-12.5-5.1-12.5,0.4c0,11.1-3.6,11.2-3.6,11.2l7,14L235.4,224.1z"
			/>
		<path class="st3" d="M217.7,221.6c4.4,0.4,9.3-1.8,13.4-5.9c0-0.6-0.1-1.2-0.1-1.9c0-0.7-0.2-1.3-0.5-1.9
			c-3.7,3.6-8.1,5.5-12.1,5.4C218.3,219.1,218,220.5,217.7,221.6z"/>
		<path class="st2" d="M210.9,191.4c-5.3,10.1-3.9,21.2,3,24.8c6.9,3.6,16.8-1.5,22.1-11.6c5.3-10.1,3.9-21.2-3-24.8
			C226.1,176.1,216.2,181.3,210.9,191.4"/>
		<path d="M234.7,190.3c0.4,1.3-3,12-3,12l3.3-2.1c0,0,3.4,0.9,0.3,5.5c-2.1,3.1-5.7,2.8-5.7,2.8l0.1,4.8c0,0,11.8-5.9,14.5-15.1
			c3.5-11.9-2.2-12.8-2.2-12.8s0.9-5.3-5-8.6c-5-2.8-12-0.5-15.5,1.3c-2.6,1.3-3.8-0.9-3.8-0.9S217.6,186,234.7,190.3z"/>
		<path class="st6" d="M257.9,236.3v8.7c0,13,0,13-4.3,13h-53.9c-4.3,0-4.3,0-4.3-13v-8.7c0-9.6,17.9-13.4,22.4-13.8
			c0.4,3.9,4.5,6,8,6c3.5,0,6.2-2.7,6.7-6.2C242.3,222.2,257.9,226.7,257.9,236.3"/>
	</g>
</g>
<g>
	<defs>
		<path id="SVGID_3_" d="M128,73.4c0,18.2-14.7,32.9-32.9,32.9S62.2,91.6,62.2,73.4s14.7-32.9,32.9-32.9
			C111.7,40.5,128,55.2,128,73.4z"/>
	</defs>
	<clipPath id="SVGID_4_">
		<use xlink:href="#SVGID_3_"  style="overflow:visible;"/>
	</clipPath>
	<g class="st7">
		<path class="st4" d="M103.6,62.8V94h10.6V65.2c0-6.1-5.5-16.1-18.7-16.1s-19.5,9.3-19.5,19.5v25.8h11V60.9L103.6,62.8z"/>
		<rect x="86.3" y="82.9" class="st8" width="17.2" height="28.2"/>
		<g>
			<defs>
				<rect id="SVGID_5_" x="86.3" y="82.9" width="17.2" height="28.2"/>
			</defs>
			<clipPath id="SVGID_6_">
				<use xlink:href="#SVGID_5_"  style="overflow:visible;"/>
			</clipPath>
			<path class="st9" d="M94.5,99.7c4.7,0,15-8.1,15-19.9s-3.9-21.7-15-21.7c-10.2,0-14.2,10-14.2,21.7S89.8,99.7,94.5,99.7"/>
		</g>
		<path class="st8" d="M94.5,96c4.7,0,15-10,15-21.7c0-11.8-3.9-21.7-15-21.7c-10.2,0-14.2,10-14.2,21.7C80.4,86,89.8,96,94.5,96"/>
		<path class="st4" d="M104.3,63.1C100,74.7,78.8,78.6,78.8,78.6S77.1,58.3,88,53.1C102.2,46.2,104.3,63.1,104.3,63.1"/>
		<path class="st4" d="M64.1,113.8c0-9.5,13.6-11.2,22.2-13.8c4.3,3.5,6.3,5.2,8.9,5.2c3.5,0,5.3-1.7,8.7-5.2
			c9.5,2.6,22.4,4.3,22.4,13.8v8.6c0,13,0,13-4.3,13H69.3c-5.2,0-5.2,0-5.2-13V113.8z"/>
		<path class="st4" d="M110.9,73.3c-7-3.4-12.7-13.2-12.7-13.2l-1.3-9.7c0,0,10.4,2.9,12.7,9.5C111.9,66.5,110.9,73.3,110.9,73.3"/>
	</g>
</g>
<g>
	<path class="st10" d="M192.7,108.1h-38l-15.5-14v14h-9.7h0v58.7h0h9.7v14l15.5-14h12.8l15.5,14v-14h9.7h0L192.7,108.1L192.7,108.1z
		 M178.1,169.9l-8.8-7.9h-0.6h-14.9h-0.9l-8.8,7.9v-7.9h-1.5h0v0h-8.2v-49h7.1h0.8v0h1.8v-7.9l8.8,7.9h0.6v0h0.8h33.5v49h-8.2v0
		h-1.6V169.9z"/>
	<rect x="140.2" y="119" class="st11" width="29.9" height="4.8"/>
	<rect x="140" y="129.5" class="st11" width="15.5" height="4.8"/>
	<rect x="139.8" y="150.5" class="st11" width="29.9" height="4.8"/>
	<rect x="139.8" y="140" class="st11" width="15.5" height="4.8"/>
	<g>
		<polygon class="st11" points="169.3,141.3 165.3,137.1 169.3,133 167.6,131.3 161.7,137.1 167.6,143 		"/>
		<polygon class="st11" points="182.8,137.1 176.8,131.3 175.1,133 179.2,137.1 175.1,141.3 176.8,143 		"/>
	</g>
</g>
<g>
	<defs>
		<circle id="SVGID_7_" cx="95.1" cy="198.3" r="32.9"/>
	</defs>
	<clipPath id="SVGID_8_">
		<use xlink:href="#SVGID_7_"  style="overflow:visible;"/>
	</clipPath>
	<g class="st12">
		<rect x="85.7" y="208.8" class="st13" width="16.2" height="34.1"/>
		<rect x="85.7" y="208.4" class="st14" width="16.2" height="34.1"/>
		<g>
			<defs>
				<rect id="SVGID_9_" x="85.7" y="208.4" width="16.2" height="34.1"/>
			</defs>
			<clipPath id="SVGID_10_">
				<use xlink:href="#SVGID_9_"  style="overflow:visible;"/>
			</clipPath>
			<path class="st15" d="M79.4,200.7c0-11.8,4-21.5,14.6-21.5c10.6,0,14.6,9.6,14.6,21.5c0,11.8-9.9,19.5-14.6,19.5
				C89.4,220.2,79.4,212.6,79.4,200.7"/>
		</g>
		<path class="st16" d="M111,202.8H77.1c-0.9,0-1.7-0.8-1.7-1.7v-5.7c0-0.9,0.8-1.7,1.7-1.7H111c0.9,0,1.7,0.8,1.7,1.7v5.7
			C112.7,202.1,111.9,202.8,111,202.8"/>
		<path class="st14" d="M78.2,196.2c0-11.8,4-21.7,15.9-21.7c11.8,0,16.3,9.6,16.3,21.5c0,11.8-11.1,21.5-16.3,21.5
			c-5.2,0-16.3-9.6-16.3-21.5L78.2,196.2z"/>
		<path class="st4" d="M102.1,182.5c-2.2,4.8-19.6,6.2-19.6,6.2s-1.4,3.3-1.4,7.2c0,1,0,3.4,0,3.4H78l-0.5-8.2
			c0,0-2.3-16.9,15.5-17.9C110.7,172.1,102.1,182.5,102.1,182.5"/>
		<path class="st4" d="M98.9,183.7c1.8,5.6,8.3,4,8.4,8.7c0.1,4.6,0.3,6.8,0.3,6.8h2.6c0,0,0.1-3,0.5-8.4c0.4-5.4-1.3-13.2-7.3-13.4
			C97.4,177.3,98.9,183.7,98.9,183.7"/>
		<path class="st4" d="M102.1,218.3l-8.3,16.3l-8.5-16.3c-10,3.1-24.4,4.6-24.4,14.7v9.3c0,13.9,0,13.9,4.6,13.9h56.3
			c5.4,0,5.4,0,5.4-13.9v-9.3C127.3,222.9,111.3,221.3,102.1,218.3"/>
	</g>
</g>
</svg>
